<mxfile host="app.diagrams.net" modified="2024-04-17T23:15:40.008Z" agent="Mozilla/5.0 (Windows NT 10.0; Win64; x64) AppleWebKit/537.36 (KHTML, like Gecko) Chrome/123.0.0.0 Safari/537.36" etag="bfck5p0bzG2xsw6BOJOz" version="24.2.5" type="google">
  <diagram id="prtHgNgQTEPvFCAcTncT" name="Page-1">
    <mxGraphModel grid="1" page="1" gridSize="10" guides="1" tooltips="1" connect="1" arrows="1" fold="1" pageScale="1" pageWidth="827" pageHeight="1169" math="0" shadow="0">
      <root>
        <mxCell id="0" />
        <mxCell id="1" parent="0" />
        <mxCell id="dNxyNK7c78bLwvsdeMH5-11" value="La Lecherita SRL" style="swimlane;html=1;startSize=20;horizontal=1;containerType=tree;glass=0;" vertex="1" parent="1">
          <mxGeometry x="40" y="80" width="780" height="290" as="geometry" />
        </mxCell>
        <mxCell id="BoIIR3ZoythXoVJBJkeF-4" value="DirecciÃ³n General" style="rounded=0;whiteSpace=wrap;html=1;fillColor=#D5E8D4;fontStyle=1" vertex="1" parent="dNxyNK7c78bLwvsdeMH5-11">
          <mxGeometry x="330" y="40" width="120" height="40" as="geometry" />
        </mxCell>
        <mxCell id="BoIIR3ZoythXoVJBJkeF-7" value="Compras" style="rounded=0;whiteSpace=wrap;html=1;fillColor=#A9C4EB;fontStyle=1" vertex="1" parent="dNxyNK7c78bLwvsdeMH5-11">
          <mxGeometry x="40" y="120" width="120" height="40" as="geometry" />
        </mxCell>
        <mxCell id="BoIIR3ZoythXoVJBJkeF-8" value="Adm. Comercial" style="rounded=0;whiteSpace=wrap;html=1;fillColor=#A9C4EB;fontStyle=1" vertex="1" parent="dNxyNK7c78bLwvsdeMH5-11">
          <mxGeometry x="200" y="120" width="120" height="40" as="geometry" />
        </mxCell>
        <mxCell id="BoIIR3ZoythXoVJBJkeF-9" value="Adm. Industrial&lt;span style=&quot;color: rgba(0, 0, 0, 0); font-family: monospace; font-size: 0px; font-weight: 400; text-align: start; text-wrap: nowrap;&quot;&gt;%3CmxGraphModel%3E%3Croot%3E%3CmxCell%20id%3D%220%22%2F%3E%3CmxCell%20id%3D%221%22%20parent%3D%220%22%2F%3E%3CmxCell%20id%3D%222%22%20value%3D%22Adm.%20Comercial%22%20style%3D%22rounded%3D0%3BwhiteSpace%3Dwrap%3Bhtml%3D1%3BfillColor%3D%23A9C4EB%3BfontStyle%3D1%22%20vertex%3D%221%22%20parent%3D%221%22%3E%3CmxGeometry%20x%3D%22240%22%20y%3D%22200%22%20width%3D%22120%22%20height%3D%2240%22%20as%3D%22geometry%22%2F%3E%3C%2FmxCell%3E%3C%2Froot%3E%3C%2FmxGraphModel%3E&lt;/span&gt;" style="rounded=0;whiteSpace=wrap;html=1;fillColor=#A9C4EB;fontStyle=1" vertex="1" parent="dNxyNK7c78bLwvsdeMH5-11">
          <mxGeometry x="360" y="120" width="120" height="40" as="geometry" />
        </mxCell>
        <mxCell id="BoIIR3ZoythXoVJBJkeF-10" value="Recursos Humanos" style="rounded=0;whiteSpace=wrap;html=1;fillColor=#A9C4EB;fontStyle=1" vertex="1" parent="dNxyNK7c78bLwvsdeMH5-11">
          <mxGeometry x="520" y="120" width="120" height="40" as="geometry" />
        </mxCell>
        <mxCell id="BoIIR3ZoythXoVJBJkeF-11" value="Relaciones&lt;div&gt;Institucionales&lt;/div&gt;" style="rounded=0;whiteSpace=wrap;html=1;fillColor=#A9C4EB;fontStyle=1" vertex="1" parent="dNxyNK7c78bLwvsdeMH5-11">
          <mxGeometry x="470" y="170" width="120" height="40" as="geometry" />
        </mxCell>
        <mxCell id="BoIIR3ZoythXoVJBJkeF-12" value="Adm. Comercial" style="rounded=0;whiteSpace=wrap;html=1;fillColor=#A9C4EB;fontStyle=1" vertex="1" parent="dNxyNK7c78bLwvsdeMH5-11">
          <mxGeometry x="300" y="200" width="120" height="40" as="geometry" />
        </mxCell>
      </root>
    </mxGraphModel>
  </diagram>
</mxfile>
